<?xml version="1.0" encoding="UTF-8"?>
<svg width="24" height="24" viewBox="0 0 24 24" fill="none" xmlns="http://www.w3.org/2000/svg">
<path d="M0 0V24H24V0H0ZM6.35314 20.0709C6.04457 20.3794 5.616 20.5714 5.14286 20.5714C4.66971 20.5714 4.24114 20.3794 3.92914 20.0709C3.62057 19.7589 3.42857 19.3303 3.42857 18.8571C3.42857 18.384 3.62057 17.952 3.92914 17.6434C4.24114 17.3349 4.66629 17.1429 5.14286 17.1429C6.08914 17.1429 6.85714 17.9074 6.85714 18.8571C6.85714 19.3303 6.66514 19.7589 6.35314 20.0709ZM13.7143 13.7143H10.2857V10.2857H13.7143V13.7143Z" fill="#FCD093"/>
<path d="M5.143 20.5716C5.61614 20.5716 6.04471 20.3796 6.35328 20.0711C6.66528 19.7591 6.85728 19.3305 6.85728 18.8574C6.85728 17.9076 6.08928 17.1431 5.143 17.1431C4.66643 17.1431 4.24128 17.3351 3.92928 17.6436C3.62071 17.9522 3.42871 18.3842 3.42871 18.8574C3.42871 19.3305 3.62071 19.7591 3.92928 20.0711C4.24128 20.3796 4.66643 20.5716 5.143 20.5716Z" fill="#1C1917"/>
<path d="M13.714 3.42871H10.2854V6.85728H13.714V3.42871Z" fill="#1C1917"/>
<path d="M13.714 10.2856H10.2854V13.7142H13.714V10.2856Z" fill="#1C1917"/>
<path d="M6.85728 10.2856H3.42871V13.7142H6.85728V10.2856Z" fill="#1C1917"/>
<path d="M6.85728 3.42871H3.42871V6.85728H6.85728V3.42871Z" fill="#1C1917"/>
</svg>
