<svg xmlns="http://www.w3.org/2000/svg" version="1.1" xmlns:xlink="http://www.w3.org/1999/xlink" xmlns:svgjs="http://svgjs.dev/svgjs" width="1000" height="1125" viewBox="0 0 1000 1125"><g transform="matrix(1,0,0,1,1.7053025658242404e-13,0)"><svg viewBox="0 0 320 360" data-background-color="#ffffff" preserveAspectRatio="xMidYMid meet" height="1125" width="1000" xmlns="http://www.w3.org/2000/svg" xmlns:xlink="http://www.w3.org/1999/xlink"><g id="tight-bounds" transform="matrix(1,0,0,1,0,0)"><svg viewBox="0 0 320 360" height="360" width="320"><g><svg></svg></g><g><svg viewBox="0 0 320 360" height="360" width="320"><g><path xmlns="http://www.w3.org/2000/svg" d="M20.961 227.22l3.726 4.658-1.863-6.056c-0.466-2.795-3.726 0.466-1.863 1.398M25.153 224.425c1.397 2.329 2.795 4.658 2.795 6.987 0 3.261 2.795 4.658 5.123 5.589-3.261-3.726-5.124-13.974-7.918-12.576M204.017 26.929c7.918 0 15.371-0.932 23.756 0.931 20.495 5.124 37.729 15.371 49.374 29.811l32.606 52.169c1.397 13.042 4.192 27.482 3.726 43.319 3.261 0 2.795-4.658 6.521-5.59-3.726 9.316-5.59 20.961-6.521 34.469-2.329-7.453 0-18.632 0.466-24.687-3.261 5.124-5.124 1.397-5.124-0.932 0.466-3.726-1.397-3.261-2.795-4.658-5.124-4.658-8.384-9.782-12.11-17.7 2.329-6.055 2.795-14.905-4.658-19.563-2.329-1.397-5.124-3.726-6.521-7.453-1.863-5.124-5.124-11.179-4.193-19.097 0.466-2.329-6.987 5.124-11.179 1.863-18.166-12.576-36.332-27.016-58.224-39.127-11.645 0-20.029-4.192-24.221-9.316-3.726-4.658-0.932-10.713 4.658-11.179 3.261 0 6.987-0.932 9.782 0.932 0.466-1.863 2.329-4.192 4.657-4.192M157.904 16.215l0.932 0.466c4.658 0.932 6.987 7.453 12.11 5.124 0 3.261 0.466 6.521-0.466 8.85-1.397 3.726-5.59 3.726-8.85 3.726-31.208-1.863-49.374 11.179-68.471 22.358-5.124 3.261-10.713 5.59-14.906 9.782-20.029 18.632-41.921 35.866-47.045 70.335l-4.192 38.195c-0.466 4.192-5.124 8.384-4.192 13.508l3.26 22.824c-3.261-3.261-5.124 0.932-4.192 2.795 0.466 1.397 2.329 6.055 5.124 1.863 3.726 6.987 7.453 20.495 12.576 26.55 15.837 18.632 36.332 35.4 53.101 52.169 4.192-0.932 7.453-0.932 8.384-3.727 1.397 2.795-1.397 5.59-3.726 6.056 7.453 4.658 15.837 8.85 27.016 9.781 14.44 0.932 27.948 3.261 40.524 6.522 6.521-1.863 13.042-2.795 20.029-3.261 2.329 0 3.726-3.726 6.521-4.658l0.466-4.658c2.795 4.192 2.329-1.397 0.466-4.192 3.261 2.795 4.192 5.124 5.589 6.987 0-1.397 3.726-6.521 3.727-0.466l0.931-6.055c1.397-0.932 1.863 5.124 3.261 0.931 1.397-4.192 4.192-0.932 6.987-2.329-0.932 1.863-0.466 5.59 2.794 3.261l3.727-3.261c2.329 5.59 6.055 3.261 7.918 2.329 20.495-13.042 40.99-28.413 60.553-43.784l-0.466 6.055 2.329-7.453c2.329 2.329 4.192 0.466 5.124-0.931 2.795-4.658 6.521-9.316 12.577-13.508-7.453 20.029-16.303 35.866-27.482 48.908l-4.658 5.59c0 3.261-0.932 7.453-4.658 7.918-1.863 0.466-5.59-0.932-8.384 1.863-1.397 1.863 3.261 5.59-0.466 2.795-3.261-2.329-6.521 0-10.248 0.932-2.795 0.932 1.863 3.726 2.795 5.589 0.932 1.863 1.863 3.726 1.398 6.056l-5.124-5.59c-6.055 3.261-9.782 9.316-14.906 13.974-2.329 1.863-1.397 5.124-1.397 7.918-3.261 0-6.987-0.932-8.85 0.932-1.397 1.863-0.932 4.658-0.932 7.453-4.658-0.466-5.124-7.453-9.315-6.056-4.192 0.932-8.85 1.397-12.577 3.727 2.795 5.59-4.658 2.329-3.726 3.26-6.987-4.192-13.042-7.453-20.495-4.658-15.837-5.124-35.4-2.795-49.84-0.931 0-2.329 0.466-4.658-0.466-5.124-0.932 2.329-3.726 1.397-3.26 1.397-8.85-6.055-17.7-9.782-27.016-14.905-8.384 0.932-16.303-3.261-18.632-5.59-6.521-6.055-13.974-2.795-20.029-4.192-13.042-3.261-17.7-16.769-19.098-26.084-0.932-4.658-4.658-6.521-6.055-6.056-6.055-19.563-15.371-37.263-22.824-55.429-1.863-4.658-1.397-9.316-1.397-14.44 2.329 0.932 4.658 0.466 4.192-2.794-2.329-15.371-7.918-27.016-13.974-38.195 3.261-15.837 3.726-34.469 11.179-48.443 6.521-12.576 18.632-19.098 27.016-29.811 2.795-3.726 2.795-8.85 5.59-12.11 9.316-9.316 18.632-19.098 28.879-27.482 4.658-3.726 10.247 0 17.234-1.397 2.329-8.384 11.645-15.837 20.495-13.508 3.726 0.932 11.179-8.85 13.508-9.782 3.726-1.397 1.863 3.726 1.863 6.987 8.85-6.987 20.961-10.713 32.14-14.906" fill="#000000" fill-rule="nonzero" stroke="none" stroke-width="1" stroke-linecap="butt" stroke-linejoin="miter" stroke-miterlimit="10" stroke-dasharray="" stroke-dashoffset="0" font-family="none" font-weight="none" font-size="none" text-anchor="none" style="mix-blend-mode: normal" data-fill-palette-color="tertiary"></path></g><g transform="matrix(1,0,0,1,101.68265932868974,90)"><svg viewBox="0 0 116.63468134262052 180" height="180" width="116.63468134262052"><g><svg viewBox="0 0 116.63468134262052 180" height="180" width="116.63468134262052"><g><svg viewBox="0 0 192 296.30980770186335" height="180" width="116.63468134262052"><g transform="matrix(1,0,0,1,0,141.27875180124224)"><svg viewBox="0 0 192 155.0310559006211" height="155.0310559006211" width="192"><g id="textblocktransform"><svg viewBox="0 0 192 155.0310559006211" height="155.0310559006211" width="192" id="textblock"><g><svg viewBox="0 0 192 155.0310559006211" height="155.0310559006211" width="192"><g transform="matrix(1,0,0,1,0,0)"><svg width="192" viewBox="5 -32.5 40.25 32.5" height="155.0310559006211" data-palette-color="#000000"><path d="M8.5-11.5L8.5 0 5 0 5-32.5 12.55-32.5Q16.45-32.5 18.48-30.65 20.5-28.8 20.5-25.5L20.5-25.5 20.5-18.5Q20.5-13.4 16.1-12L16.1-12 22.25 0 18.4 0 12.55-11.5 8.5-11.5ZM17-18.5L17-18.5 17-25.5Q17-27.4 15.85-28.45 14.7-29.5 12.55-29.5L12.55-29.5 8.5-29.5 8.5-14.5 12.55-14.5Q17-14.5 17-18.5ZM29.25 0L29.25-32.5 36.8-32.5Q40.7-32.5 42.72-30.65 44.75-28.8 44.75-25.5L44.75-25.5 44.75-22.5Q44.75-18.25 41.2-17.05L41.2-17.05Q45.25-15.95 45.25-11.5L45.25-11.5 45.25-7Q45.25-3.65 43.25-1.83 41.25 0 37.3 0L37.3 0 29.25 0ZM41.75-7L41.75-7 41.75-11.5Q41.75-13.1 40.55-14.43 39.35-15.75 37.3-15.75L37.3-15.75 32.75-15.75 32.75-3 37.3-3Q39.4-3 40.57-4.17 41.75-5.35 41.75-7ZM41.25-22.5L41.25-22.5 41.25-25.5Q41.25-27.1 40.07-28.3 38.9-29.5 36.8-29.5L36.8-29.5 32.75-29.5 32.75-18.25 36.8-18.25Q38.9-18.25 40.07-19.55 41.25-20.85 41.25-22.5Z" opacity="1" transform="matrix(1,0,0,1,0,0)" fill="#000000" class="wordmark-text-0" data-fill-palette-color="primary" id="text-0"></path></svg></g></svg></g></svg></g></svg></g><g transform="matrix(1,0,0,1,36.672,0)"><svg viewBox="0 0 118.656 118.656" height="118.656" width="118.656"><g><svg xmlns="http://www.w3.org/2000/svg" xmlns:xlink="http://www.w3.org/1999/xlink" version="1.1" x="0" y="0" viewBox="0 0 60 60" enable-background="new 0 0 60 60" xml:space="preserve" height="118.656" width="118.656" class="icon-icon-0" data-fill-palette-color="accent" id="icon-0"><g fill="#000000" data-fill-palette-color="accent"><path fill="#000000" d="M37.54 52.33c0.14 0.4 0.52 0.67 0.94 0.67h11.39c0.44 0 0.82-0.28 0.95-0.7l3.12-9.89c0.12-0.37 0.01-0.78-0.29-1.04l-9-8.11c-0.38-0.34-0.95-0.34-1.33 0l-9 8.03c-0.3 0.27-0.41 0.69-0.28 1.08L37.54 52.33zM44 35.34l7.86 7.08L49.15 51H39.2l-3.03-8.67L44 35.34z" data-fill-palette-color="accent"></path><path fill="#000000" d="M59 0H1C0.45 0 0 0.45 0 1v58c0 0.55 0.45 1 1 1h58c0.55 0 1-0.45 1-1V1C60 0.45 59.55 0 59 0zM58 58H2V2h56V58z" data-fill-palette-color="accent"></path><path fill="#000000" d="M7 26h18c0.55 0 1-0.45 1-1V7c0-0.55-0.45-1-1-1H7C6.45 6 6 6.45 6 7v18C6 25.55 6.45 26 7 26zM8 8h16v16H8V8z" data-fill-palette-color="accent"></path><path fill="#000000" d="M35 26h18c0.01 0 0.01 0 0.02 0 0.55 0 1-0.45 1-1 0-0.23-0.08-0.44-0.21-0.61L44.89 6.55c-0.34-0.68-1.45-0.68-1.79 0l-9 18c-0.16 0.31-0.14 0.68 0.04 0.97C34.33 25.82 34.65 26 35 26zM44 9.24L51.38 24H36.62L44 9.24z" data-fill-palette-color="accent"></path><path fill="#000000" d="M16 54c5.51 0 10-4.49 10-10s-4.49-10-10-10S6 38.49 6 44 10.49 54 16 54zM16 36c4.41 0 8 3.59 8 8s-3.59 8-8 8-8-3.59-8-8S11.59 36 16 36z" data-fill-palette-color="accent"></path></g></svg></g></svg></g><g></g></svg></g></svg></g></svg></g></svg></g><defs></defs></svg><rect width="320" height="360" fill="none" stroke="none" visibility="hidden"></rect></g></svg></g></svg>